<svg width="28" height="33" viewBox="0 0 28 33" fill="none" xmlns="http://www.w3.org/2000/svg">
    <path d="M14.416 7.615c1.553 0 3.5-1.007 4.659-2.35C20.125 4.05 20.891 2.35 20.891.65c0-.23-.022-.461-.066-.65-1.728.063-3.806 1.112-5.053 2.517-.985 1.07-1.881 2.749-1.881 4.469 0 .252.043.504.065.587.11.021.285.042.46.042zM8.946 33c2.123 0 3.063-1.364 5.71-1.364 2.69 0 3.281 1.322 5.644 1.322 2.319 0 3.872-2.056 5.337-4.07 1.641-2.308 2.32-4.573 2.363-4.678-.153-.042-4.594-1.783-4.594-6.672 0-4.237 3.5-6.146 3.697-6.293-2.319-3.19-5.84-3.273-6.803-3.273-2.603 0-4.725 1.51-6.06 1.51-1.443 0-3.346-1.426-5.6-1.426-4.287 0-8.64 3.399-8.64 9.818 0 3.986 1.619 8.203 3.61 10.93C5.315 31.112 6.802 33 8.946 33z" fill="#181818"/>
</svg>
